# xmcd
# 
# Track frame offsets:
#     150
#     12533
#     23369
#     35568
#     50490
#     64294
#     77031
#     91397
#     105494
#     117922
#     133467
#     150452
#     166708
#     178102
#     196674
# 
# Disc length: 2794
# 
# Revision: 1
# Processed by: cddbd v1.5.2PL0 Copyright (c) Steve Scherf et al.
# Submitted via: fre:ac v1.0.31
# 
DISCID=bc0ae80f
DTITLE=Selena - La Leyenda CD1
DYEAR=2010
DGENRE=Tex-Mex
TTITLE0=Amor Prohibido
TTITLE1=Besitos
TTITLE2=Baila Esta Cumbia
TTITLE3=La Carcacha
TTITLE4=Como La Flor
TTITLE5=No Debes Jugar
TTITLE6=La Llamada
TTITLE7=Bidi Bidi Bom Bom
TTITLE8=Si Una Vez
TTITLE9=El Chico Del Apartamento 512
TTITLE10=Techno Cumbia
TTITLE11=Costumbres
TTITLE12=Fotos y Recuerdos  (Back On The Chain Gang)
TTITLE13=Contigo Quiero Estar
TTITLE14=Amame, Quiéreme
EXTD=
EXTT0=
EXTT1=
EXTT2=
EXTT3=
EXTT4=
EXTT5=
EXTT6=
EXTT7=
EXTT8=
EXTT9=
EXTT10=
EXTT11=
EXTT12=
EXTT13=
EXTT14=
PLAYORDER=
